HIERARCHY
ROOT SpineBase
{
  OFFSET 0.000000 0.000000 0.000000
  CHANNELS 6 Xposition Yposition Zposition Zrotation Xrotation Yrotation
  JOINT SpineMid
  {
    OFFSET 0.000000 31.651153 0.000000
    CHANNELS 3 Zrotation Xrotation Yrotation
    JOINT SpineShoulder
    {
      OFFSET -0.049893 23.448223 -0.740117
      CHANNELS 3 Zrotation Xrotation Yrotation
      JOINT Neck
      {
        OFFSET 0.012773 7.734532 -0.564536
        CHANNELS 3 Zrotation Xrotation Yrotation
        JOINT Head
        {
          OFFSET -4.038033 14.459857 -2.837589
          CHANNELS 3 Zrotation Xrotation Yrotation
          End Site
          {
            OFFSET 0 0 0
          }
        }
      }
      JOINT ShoulderLeft
      {
        OFFSET -18.170879 -4.950737 3.712701
        CHANNELS 3 Zrotation Xrotation Yrotation
        JOINT ElbowLeft
        {
          OFFSET -2.409738 -29.619683 2.415521
          CHANNELS 3 Zrotation Xrotation Yrotation
          JOINT WristLeft
          {
            OFFSET -0.705038 -22.863824 -5.734350
            CHANNELS 3 Zrotation Xrotation Yrotation
            JOINT HandLeft
            {
              OFFSET 0.475478 -3.722358 -0.379146
              CHANNELS 3 Zrotation Xrotation Yrotation
              JOINT HandTipLeft
              {
                OFFSET 1.551434 -7.381579 -1.913931
                CHANNELS 3 Zrotation Xrotation Yrotation
                End Site
                {
                  OFFSET 0 0 0
                }
              }
              JOINT ThumbLeft
              {
                OFFSET -3.921370 -1.423390 -2.886129
                CHANNELS 3 Zrotation Xrotation Yrotation
                End Site
                {
                  OFFSET 0 0 0
                }
              }
            }
          }
        }
      }
      JOINT ShoulderRight
      {
        OFFSET 16.653542 -3.169617 -5.890910
        CHANNELS 3 Zrotation Xrotation Yrotation
        JOINT ElbowRight
        {
          OFFSET 4.111749 -26.139850 -1.826998
          CHANNELS 3 Zrotation Xrotation Yrotation
          JOINT WristRight
          {
            OFFSET -4.057683 -22.458721 -9.392434
            CHANNELS 3 Zrotation Xrotation Yrotation
            JOINT HandRight
            {
              OFFSET -4.165692 -6.296982 -2.847797
              CHANNELS 3 Zrotation Xrotation Yrotation
              JOINT HandTipRight
              {
                OFFSET -1.882687 -5.778341 -1.248752
                CHANNELS 3 Zrotation Xrotation Yrotation
                End Site
                {
                  OFFSET 0 0 0
                }
              }
              JOINT ThumbRight
              {
                OFFSET -2.805173 1.692318 -0.619409
                CHANNELS 3 Zrotation Xrotation Yrotation
                End Site
                {
                  OFFSET 0 0 0
                }
              }
            }
          }
        }
      }
    }
  }
  JOINT HipLeft
  {
    OFFSET -7.480361 0.393700 -2.120115
    CHANNELS 3 Zrotation Xrotation Yrotation
    JOINT KneeLeft
    {
      OFFSET 1.860441 -33.358651 2.940464
      CHANNELS 3 Zrotation Xrotation Yrotation
      JOINT AnkleLeft
      {
        OFFSET 2.992447 -35.500384 8.791641
        CHANNELS 3 Zrotation Xrotation Yrotation
        JOINT FootLeft
        {
          OFFSET -1.520639 -5.935702 -10.422645
          CHANNELS 3 Zrotation Xrotation Yrotation
          End Site
          {
            OFFSET 0 0 0
          }
        }
      }
    }
  }
  JOINT HipRight
  {
    OFFSET 7.947292 1.328444 -5.293339
    CHANNELS 3 Zrotation Xrotation Yrotation
    JOINT KneeRight
    {
      OFFSET 6.294376 -33.159180 -0.201245
      CHANNELS 3 Zrotation Xrotation Yrotation
      JOINT AnkleRight
      {
        OFFSET 3.009082 -35.743175 7.965404
        CHANNELS 3 Zrotation Xrotation Yrotation
        JOINT FootRight
        {
          OFFSET -0.978866 -6.478971 -9.780267
          CHANNELS 3 Zrotation Xrotation Yrotation
          End Site
          {
            OFFSET 0 0 0
          }
        }
      }
    }
  }
}
MOTION
Frames: 14
Frame Time: 0.033333
-18.905770 42.089458 325.854679 1.389627 -21.997411 9.920689 -0.187611 -0.076101 -9.626996 0.186573 0.151347 0.106284 5.978999 12.140150 -3.288376 0.000000 0.000000 0.000000 -12.302937 34.924864 3.549302 8.493912 10.642456 2.189990 3.555338 2.279331 4.299205 -7.119133 3.532088 2.353868 0.000000 0.000000 0.000000 0.000000 0.000000 0.000000 6.533369 40.765818 -1.500253 -12.571256 -14.082945 -3.724819 11.489683 -2.387818 -5.144076 -17.945667 16.043339 1.668861 0.000000 0.000000 0.000000 0.000000 0.000000 0.000000 -159.205321 61.983275 147.828875 144.094861 -53.743010 123.645648 -15.654874 25.514427 1.600688 0.000000 0.000000 0.000000 170.943122 68.049390 -153.512120 -130.462995 -72.334813 -134.956330 -4.469813 10.954019 2.456409 0.000000 0.000000 0.000000
-19.131612 38.991321 325.928351 1.072582 -22.104113 9.719520 -0.144729 -0.008330 -9.501766 -0.016770 0.144002 0.120523 6.314376 12.113786 -3.347655 0.000000 0.000000 0.000000 -11.860050 36.883370 3.541413 7.829762 9.497349 2.541241 4.515683 1.449317 4.390307 -9.091454 5.280774 2.812051 0.000000 0.000000 0.000000 0.000000 0.000000 0.000000 6.457336 42.092868 -1.105126 -13.748581 -13.726679 -4.060740 12.764978 -3.630392 -5.308027 -19.792736 15.158835 2.417272 0.000000 0.000000 0.000000 0.000000 0.000000 0.000000 -161.891182 58.944723 151.565422 148.000190 -51.331811 128.343917 -15.945538 25.694858 1.736818 0.000000 0.000000 0.000000 173.998968 66.491212 -156.147313 -140.034870 -70.262717 -144.664495 -5.116480 14.695789 1.767525 0.000000 0.000000 0.000000
-18.415873 36.387739 325.811326 1.782768 -22.093874 10.565096 -0.365957 0.041119 -10.150313 -0.173431 0.046385 0.158375 6.251099 12.359931 -3.312595 0.000000 0.000000 0.000000 -12.341267 38.676330 3.701735 7.606863 8.643147 2.796278 3.882561 0.219912 4.351966 -8.258412 6.229972 3.147760 0.000000 0.000000 0.000000 0.000000 0.000000 0.000000 5.320422 43.230038 -0.465145 -14.318106 -13.425653 -4.328367 14.060339 -4.768413 -5.438035 -21.604430 15.143843 2.962319 0.000000 0.000000 0.000000 0.000000 0.000000 0.000000 -163.035318 55.923036 151.111632 149.675089 -48.521239 128.552180 -16.013818 25.427114 1.610421 0.000000 0.000000 0.000000 178.868789 64.892526 -162.903133 -152.481103 -66.317265 -159.364445 -4.295806 19.225669 -1.025123 0.000000 0.000000 0.000000
-16.984832 33.639653 325.719400 3.171084 -22.130943 11.938909 -0.661584 0.125985 -11.159614 -0.322133 -0.051811 0.219371 6.016192 12.628594 -3.262170 0.000000 0.000000 0.000000 -14.070447 40.663474 4.261629 8.270704 7.822668 3.107868 1.822597 -0.448603 4.266957 -7.016748 4.842858 3.072809 0.000000 0.000000 0.000000 0.000000 0.000000 0.000000 3.259742 44.370595 0.461631 -14.420958 -12.533037 -4.619528 15.233858 -6.888762 -4.964144 -22.138868 15.391183 3.053641 0.000000 0.000000 0.000000 0.000000 0.000000 0.000000 -163.854927 51.633049 148.511730 150.935818 -45.065229 126.667423 -15.679747 24.410458 1.348653 0.000000 0.000000 0.000000 -175.680113 62.941175 -171.751201 -161.398725 -61.547475 -172.123324 -2.912075 29.871063 -5.465889 0.000000 0.000000 0.000000
-15.034358 31.573098 325.538554 5.105856 -22.122728 13.642410 -0.944171 0.192251 -12.377382 -0.427092 -0.150203 0.299430 5.227630 12.915817 -3.145033 0.000000 0.000000 0.000000 -16.742622 42.201121 5.084386 9.383167 7.168309 3.422085 -1.212951 -0.319707 4.086666 -4.294085 1.642546 2.630720 0.000000 0.000000 0.000000 0.000000 0.000000 0.000000 0.568123 45.527107 1.511999 -14.130432 -12.606879 -4.906563 16.088706 -7.189357 -5.335240 -22.478782 15.155342 3.256111 0.000000 0.000000 0.000000 0.000000 0.000000 0.000000 -163.657293 48.159980 143.133393 150.749792 -41.645816 121.739691 -15.627898 23.640663 1.034888 0.000000 0.000000 0.000000 -170.470392 61.988933 178.089426 -167.115783 -56.945964 177.013195 -2.387853 46.089877 -8.560587 0.000000 0.000000 0.000000
-12.732450 30.078910 325.357404 7.511579 -22.170481 15.696519 -1.120681 0.246863 -13.850955 -0.465518 -0.194963 0.396160 3.420615 12.971156 -2.964321 0.000000 0.000000 0.000000 -20.221580 43.131875 6.089639 10.428564 6.405918 3.745948 -3.979751 1.496968 4.060896 -0.626099 -3.608463 1.835180 0.000000 0.000000 0.000000 0.000000 0.000000 0.000000 -2.822735 45.967616 2.607053 -12.983097 -11.771578 -5.011260 15.972858 -8.789062 -4.485150 -23.019971 16.605926 3.116998 0.000000 0.000000 0.000000 0.000000 0.000000 0.000000 -163.490603 44.986219 136.756297 149.965390 -38.553180 115.295967 -15.595803 22.756428 0.817912 0.000000 0.000000 0.000000 -166.785451 60.302470 169.172783 -169.815531 -53.215211 168.831402 1.164531 58.759923 -14.715335 0.000000 0.000000 0.000000
-10.369020 28.629944 325.379695 9.997634 -22.470296 17.497526 -1.261042 0.283907 -15.029262 -0.497562 -0.233687 0.500400 1.676183 13.214509 -2.828033 0.000000 0.000000 0.000000 -24.042770 44.279657 7.340288 11.113295 5.291724 4.159569 -5.423035 1.402438 3.824530 1.514119 -5.979994 1.541449 0.000000 0.000000 0.000000 0.000000 0.000000 0.000000 -6.096417 46.751054 3.609050 -12.035787 -10.891478 -5.176319 16.891087 -10.873922 -3.593962 -23.866751 18.303255 3.048420 0.000000 0.000000 0.000000 0.000000 0.000000 0.000000 -163.564443 41.547522 130.718725 149.744651 -35.502216 109.401668 -15.558581 22.082667 0.540315 0.000000 0.000000 0.000000 -164.362631 57.675004 161.952555 -170.962412 -50.519188 162.549640 5.904166 64.578108 -21.252145 0.000000 0.000000 0.000000
-8.289651 27.561241 325.449216 12.168475 -22.742572 18.610397 -1.311785 0.258953 -15.594955 -0.501368 -0.273264 0.594440 0.069975 13.547808 -2.683309 0.000000 0.000000 0.000000 -27.706463 45.153908 8.614170 11.512504 4.505491 4.558748 -6.220216 -1.207139 3.173701 2.179756 -6.421215 1.353537 0.000000 0.000000 0.000000 0.000000 0.000000 0.000000 -8.478248 47.624931 4.171904 -11.226760 -10.946385 -5.423412 17.015291 -11.329825 -3.347452 -23.564743 18.660923 2.891984 0.000000 0.000000 0.000000 0.000000 0.000000 0.000000 -163.671588 39.049979 125.980261 149.484040 -34.089957 104.915522 -14.946410 21.420091 0.205275 0.000000 0.000000 0.000000 -162.659531 55.062772 156.242608 -171.216158 -47.097629 158.018786 14.181841 64.517999 -32.956014 0.000000 0.000000 0.000000
-6.758437 26.681186 325.494848 13.753962 -22.919792 19.104255 -1.248421 0.192233 -15.701012 -0.458448 -0.274837 0.660422 -1.444555 13.817851 -2.514725 0.000000 0.000000 0.000000 -30.598562 45.694875 9.609177 11.175485 2.485352 4.929366 -5.106101 -2.860884 2.685589 2.396281 -6.606111 1.012764 0.000000 0.000000 0.000000 0.000000 0.000000 0.000000 -9.949113 47.390746 4.211770 -9.980122 -9.734056 -5.489238 17.377470 -13.639723 -1.738974 -22.670523 20.646953 2.084238 0.000000 0.000000 0.000000 0.000000 0.000000 0.000000 -162.908428 37.421523 121.051814 148.873473 -32.475960 100.648670 -15.210893 21.232375 -0.073414 0.000000 0.000000 0.000000 -162.196198 52.590280 153.280497 -171.755202 -47.460363 155.170443 14.043490 64.773949 -32.326341 0.000000 0.000000 0.000000
-5.969863 25.606678 325.571072 14.429560 -23.194292 19.064592 -1.059324 0.120087 -15.497157 -0.366829 -0.168231 0.675655 -2.165677 14.135667 -2.414945 0.000000 0.000000 0.000000 -32.169946 45.716267 10.132384 10.535044 0.203110 5.114182 -3.835771 -4.387813 2.106040 1.401520 -5.892533 0.843045 0.000000 0.000000 0.000000 0.000000 0.000000 0.000000 -11.257591 46.732027 4.460889 -7.775161 -9.033726 -5.442307 16.700102 -14.385651 -0.740846 -20.350651 21.772623 0.897724 0.000000 0.000000 0.000000 0.000000 0.000000 0.000000 -161.978572 35.782918 117.338163 149.019191 -30.429983 97.874891 -16.012815 21.361992 -0.235604 0.000000 0.000000 0.000000 -163.151007 49.526085 154.001090 -173.219517 -50.663118 153.714733 13.356361 58.889964 -30.484032 0.000000 0.000000 0.000000
-6.197117 24.556690 325.656270 13.998800 -23.382689 18.347445 -0.765525 -0.035073 -14.909886 -0.195714 -0.050788 0.637539 -2.672965 14.535345 -2.299998 0.000000 0.000000 0.000000 -32.155057 45.317328 10.086632 9.749216 -2.265118 5.096667 -2.938882 -5.182996 1.516118 0.626456 -5.308906 0.732100 0.000000 0.000000 0.000000 0.000000 0.000000 0.000000 -11.555843 45.600467 4.430583 -5.748924 -8.342602 -5.294021 17.273285 -15.808186 0.734362 -19.896758 23.473599 0.060372 0.000000 0.000000 0.000000 0.000000 0.000000 0.000000 -160.900076 34.798993 115.488442 149.612302 -28.362267 97.173525 -17.327508 21.765477 -0.326080 0.000000 0.000000 0.000000 -163.788513 47.238249 156.013144 -178.245248 -58.353146 150.731792 20.297177 64.527384 -35.811538 0.000000 0.000000 0.000000
-6.306954 23.467536 325.476315 13.778932 -23.125808 18.257070 -0.637241 -0.079490 -14.928617 -0.382441 -0.094638 0.663629 -2.975080 14.619562 -2.188780 0.000000 0.000000 0.000000 -31.058209 44.431294 9.471705 8.596146 -4.573232 4.917700 -2.266267 -6.027795 0.836294 0.040989 -5.456259 0.470889 0.000000 0.000000 0.000000 0.000000 0.000000 0.000000 -11.366367 44.214388 4.244323 -3.138417 -7.765582 -5.334237 15.711788 -16.725537 2.413590 -14.422975 24.600051 -2.820570 0.000000 0.000000 0.000000 0.000000 0.000000 0.000000 -160.198740 33.977245 113.304635 149.935233 -26.167050 95.555523 -18.593073 21.981931 -0.353109 0.000000 0.000000 0.000000 -164.914575 46.546280 158.232923 170.955889 -68.708952 142.352459 -4.408943 77.464731 -6.250318 0.000000 0.000000 0.000000
-6.228922 22.506694 325.108166 13.812643 -22.605217 18.641000 -0.697843 -0.297690 -15.346314 -0.346491 -0.199307 0.670892 -3.526976 14.730886 -2.047163 0.000000 0.000000 0.000000 -30.239798 43.416068 8.883085 7.584132 -6.473103 4.688444 -1.693478 -7.339982 0.107070 -0.402524 -3.423781 0.787339 0.000000 0.000000 0.000000 0.000000 0.000000 0.000000 -11.511039 43.225457 4.149550 -0.506821 -8.434286 -5.391919 13.632415 -16.898952 3.931867 -9.829859 24.675780 -5.255099 0.000000 0.000000 0.000000 0.000000 0.000000 0.000000 -159.731796 33.262464 110.688901 150.149181 -23.990194 93.169810 -19.634670 22.109731 -0.538265 0.000000 0.000000 0.000000 -166.046617 44.834395 159.894419 139.962290 -77.382081 113.012016 -49.931172 69.450463 42.087647 0.000000 0.000000 0.000000
-6.166839 21.824484 324.789149 13.879977 -22.184710 18.753551 -0.737781 -0.329449 -15.487217 -0.328766 -0.231291 0.672123 -4.050825 14.492152 -1.941956 0.000000 0.000000 0.000000 -29.044435 42.050971 8.068318 6.510622 -8.177034 4.380909 -1.073208 -6.578789 -0.229830 -1.494483 -1.895139 1.261373 0.000000 0.000000 0.000000 0.000000 0.000000 0.000000 -11.356874 42.260980 3.898549 1.524396 -9.495150 -5.389496 12.175884 -17.251330 5.612823 -6.603702 25.366904 -7.565950 0.000000 0.000000 0.000000 0.000000 0.000000 0.000000 -159.394933 32.565308 108.517370 150.218244 -22.513376 91.274838 -20.220418 21.997121 -0.657432 0.000000 0.000000 0.000000 -166.711642 44.280341 160.817775 81.067043 -77.437377 55.908138 -39.774620 49.692849 31.257072 0.000000 0.000000 0.000000
